{"accessors":[{"bufferView":0,"componentType":5126,"count":570,"max":[1.3660433292388916,1.0,1.2130024433135986],"min":[-1.0991042852401733,-1.3235174417495728,-1.5510412454605103],"normalized":false,"type":"VEC3"},{"bufferView":1,"componentType":5126,"count":570,"max":[0.6956425905227661,0.6102035045623779,0.5230393409729004,-1.0],"min":[-1.0,-1.0,-1.0,-1.0],"normalized":false,"type":"VEC4"},{"bufferView":2,"componentType":5126,"count":570,"max":[1.0,1.0,1.0],"min":[-1.0,-1.0,-1.0],"normalized":false,"type":"VEC3"},{"bufferView":3,"componentType":5126,"count":570,"max":[1.0,1.0],"min":[0.0,0.0],"normalized":false,"type":"VEC2"},{"bufferView":4,"componentType":5123,"count":570,"max":[569],"min":[0],"normalized":false,"type":"SCALAR"}],"asset":{"generator":"Godot Engine v4.6.stable.official@89cea143987d564363e15d207438530651d943ac","version":"2.0"},"bufferViews":[{"buffer":0,"byteLength":6840,"byteStride":12,"target":34962},{"buffer":0,"byteLength":9120,"byteOffset":6840,"byteStride":16,"target":34962},{"buffer":0,"byteLength":6840,"byteOffset":15960,"byteStride":12,"target":34962},{"buffer":0,"byteLength":4560,"byteOffset":22800,"byteStride":8,"target":34962},{"buffer":0,"byteLength":1140,"byteOffset":27360,"target":34963}],"buffers":[{"byteLength":28500,"uri":"cuboid_structure0.bin"}],"extensionsUsed":["GODOT_single_root"],"materials":[{}],"meshes":[{"name":"cuboid_structure2","primitives":[{"attributes":{"NORMAL":2,"POSITION":0,"TANGENT":1,"TEXCOORD_0":3},"indices":4,"material":0,"mode":4}]}],"nodes":[{"children":[1,2,3,4],"mesh":0,"name":"cuboid_structure2"},{"name":"CSGBox3D"},{"name":"CSGBox3D2","rotation":[-0.03536195307970047,-0.3810460865497589,-0.32055705785751343,0.8664851784706116],"scale":[0.7500000596046448,0.7500000596046448,0.7500000596046448],"translation":[0.501032829284668,-0.2364746332168579,0.3131287097930908]},{"name":"CSGBox3D3","rotation":[0.2986544072628021,-0.1238304153084755,0.29630184173583984,0.8987084031105042],"scale":[0.8500001430511475,0.8500000238418579,0.8500000238418579],"translation":[-0.22682571411132813,-0.3128727674484253,0.3131287097930908]},{"name":"CSGBox3D4","rotation":[-0.01783078722655773,0.8724727630615234,-0.2942505478858948,-0.3897306025028229],"scale":[0.850000262260437,0.8500000238418579,0.8500001430511475],"translation":[-0.07940459251403809,-0.3128727674484253,-0.6106386184692383]}],"scene":0,"scenes":[{"nodes":[0]}]}